<?xml version="1.0" encoding="utf-8"?>
<!-- Generator: Adobe Illustrator 28.3.0, SVG Export Plug-In . SVG Version: 6.00 Build 0)  -->
<svg version="1.1"
	 id="Layer_1" xmlns:rdf="http://www.w3.org/1999/02/22-rdf-syntax-ns#" xmlns:svg="http://www.w3.org/2000/svg" xmlns:dc="http://purl.org/dc/elements/1.1/" xmlns:cc="http://creativecommons.org/ns#"
	 xmlns="http://www.w3.org/2000/svg" xmlns:xlink="http://www.w3.org/1999/xlink" x="0px" y="0px" viewBox="0 0 200 200"
	 style="enable-background:new 0 0 200 200;" xml:space="preserve">
<style type="text/css">
	.st0{display:none;fill:#0C4A6E;}
	.st1{display:none;fill:#FFFFFF;}
	.st2{display:none;fill:#FFFFFF;enable-background:new    ;}
	.st3{font-family:'ArialMT';}
	.st4{font-size:20px;}
	.st5{display:none;fill:none;stroke:#E6E6E6;stroke-width:13;stroke-miterlimit:10;}
	.st6{fill:#163147;}
	.st7{fill:#FFDC00;}
	.st8{fill:#ED7519;}
	.st9{fill:#C80E5A;}
	.st10{fill:#2C8BCB;}
	.st11{fill:#86B925;}
	.st12{fill:#35A8E0;}
</style>
<path class="st0" d="M20,0h160c11,0,20,9,20,20v160c0,11-9,20-20,20H20c-11,0-20-9-20-20V20C0,9,9,0,20,0z"/>
<path class="st1" d="M100,50l50,50l-50,50l-50-50L100,50z"/>
<text transform="matrix(1 0 0 1 39.4238 179.9999)" class="st2 st3 st4">Guardia Mitre</text>
<g>
	<g>
		<g>
			<path class="st5" d="M100,8.8C49.7,8.8,8.9,49.7,8.9,99.9c0,50.3,40.8,91.1,91.1,91.1c50.3,0,91.1-40.8,91.1-91.1
				C191.2,49.7,150.3,8.8,100,8.8z M96.1,91.7C96,91.8,96,91.8,95.8,92c-0.3,0.4-0.4,0.8-0.7,1.3c-0.3,0.4-0.5,0.8-0.9,1.2l0,0
				c-0.3,0.4-0.4,0.9-0.7,1.5c-0.3,0.5-0.4,0.9-0.7,1.5c-0.3,0.5-0.4,1.1-0.7,1.6c-0.1,0.5-0.5,1.1-0.9,1.5
				c-0.1,0.1-0.1,0.3-0.3,0.5c0,0.1,0,0.4-0.1,0.5c-0.4,0.7-0.7,1.3-1.1,2.1c-0.4,0.7-0.7,1.3-1.1,2c-0.3,0.4-0.4,0.7-0.5,1.1
				c-0.1,0.4-0.3,0.8-0.4,1.2s-0.4,0.8-0.7,1.2s-0.5,0.8-0.7,1.2c0,0.3-0.1,0.5-0.3,0.8c-0.1,0.4-0.3,0.7-0.4,1.1s-0.3,0.7-0.5,1.1
				c-0.1,0.4-0.4,0.8-0.5,1.1c-0.3,0.3-0.4,0.7-0.5,1.1s-0.3,0.8-0.3,1.2s-0.1,0.7-0.3,1.1c0,0.1-0.1,0.4-0.1,0.5
				c0,0.1-0.1,0.4-0.3,0.5c-0.3,0.7-0.5,1.3-0.8,2.1c-0.3,0.7-0.5,1.5-0.8,2.1c0,0-0.1,0-0.1,0.1c0,0.1-0.1,0.1-0.3,0.3
				c-0.1,0.1-0.3,0.1-0.3,0.3c0,0.1,0,0.3,0.1,0.4c0,0,0,0.1,0,0.3c-0.4,0.4-0.5,0.9-0.5,1.3s-0.1,0.9-0.4,1.3
				c-0.1,0.1-0.1,0.3-0.1,0.3c0,0.1,0,0.3-0.1,0.4c-0.1,0.5-0.4,0.9-0.7,1.5c-0.3,0.4-0.4,0.9-0.5,1.3s-0.3,0.8-0.4,1.2
				c-0.1,0.4-0.3,0.8-0.3,1.2c-0.1,0.5-0.4,1.1-0.5,1.5c-0.1,0.4-0.3,0.9-0.5,1.5c-0.1,0.3-0.1,0.5-0.3,0.8c0,0.3-0.1,0.5-0.3,0.8
				c0,0.1-0.1,0.3-0.1,0.5c0,0.1-0.1,0.3-0.1,0.4c0,0.1-0.1,0.3-0.3,0.4c-0.1,0.1-0.3,0.3-0.3,0.4c-0.1,0.1-0.3,0.4-0.4,0.7
				c-0.1,0.4-0.1,0.9-0.3,1.3c0,0.4-0.1,0.9-0.3,1.5c-0.1,0.1-0.3,0.3-0.5,0.4c-0.1,0.3-0.3,0.4-0.5,0.5l0.1,0.1H74
				c0.3-0.1,0.4-0.1,0.4,0.3c0,0.3,0,0.5,0,0.7c0,0.3,0,0.5,0,0.7v0.3c-0.1,0.4-0.3,0.7-0.3,1.1c0,0.3,0,0.7,0.1,0.9
				c0,0.3,0.1,0.7,0.3,0.9c0.1,0.3,0.1,0.7,0.1,0.9c0,0.1,0.1,0.3,0.1,0.4c0,0.1,0.1,0.3,0.1,0.4c0.1,0.4,0.3,0.5,0.5,0.7
				c0.3,0.1,0.5,0.1,0.9,0.1c0.1,0,0.1,0,0.3,0.1c0.1,0.1,0.1,0.3,0.3,0.3c-0.3,0.3-0.4,0.4-0.5,0.4c-0.3,0.1-0.5,0.1-0.8,0.1
				c-0.3,0-0.4,0-0.7,0c-0.4,0-0.7,0-0.9-0.1c-0.3-0.1-0.5-0.3-0.9-0.4c-0.5-0.3-1.1-0.5-1.5-0.9c-0.4-0.4-0.8-0.8-1.2-1.2
				c-0.1-0.1-0.1-0.1-0.1-0.3c-0.1-0.5-0.4-1.2-0.5-1.7c-0.1-0.7-0.3-1.2-0.4-1.9c-0.3-0.8-0.4-1.7-0.4-2.8c0-0.5,0-1.1,0-1.6
				s0-1.1,0-1.6c0.1-0.9,0.1-1.7,0.3-2.7c0.1-0.8,0.3-1.7,0.4-2.5c0.1-0.4,0.1-0.8,0.3-1.3c0.1-0.4,0.3-0.9,0.4-1.3
				c0-0.1,0-0.1,0-0.3v-0.1c-0.1-0.3-0.3-0.5-0.1-0.8c0.1-0.3,0.3-0.5,0.4-0.8c0.1-0.3,0.3-0.7,0.4-0.9c0.1-0.4,0.3-0.9,0.4-1.3
				c0.1-0.4,0.3-0.9,0.4-1.3s0.3-0.9,0.4-1.5c0.1-0.5,0.3-0.9,0.4-1.5c0.1-0.4,0.3-0.8,0.5-1.2c0.1-0.4,0.3-0.8,0.4-1.2
				c0.3-0.8,0.5-1.6,0.7-2.4c0.1-0.4,0.3-0.7,0.4-1.1s0.3-0.7,0.3-1.1c0.1-0.5,0.4-1.2,0.5-1.7c0.1-0.5,0.4-1.1,0.5-1.6
				c0.1-0.1,0.1-0.3,0.3-0.4c0-0.1,0.1-0.3,0.1-0.4c0-0.1,0-0.1,0-0.3c0,0,0-0.1,0-0.3c-0.1,0.1-0.3,0.1-0.4,0.3
				c-0.4,0.3-0.8,0.7-1.2,1.1c-0.3,0.1-0.4,0.3-0.4,0.4c-0.4,0.8-0.9,1.2-1.7,1.5c-0.1,0-0.3,0.1-0.4,0.1c-0.1,0.1-0.3,0.1-0.4,0.3
				c-0.1,0.4-0.4,0.8-0.8,0.9c-0.4,0.3-0.7,0.4-1.1,0.7c-0.8,0.7-1.6,1.3-2.1,2c-0.3,0.3-0.7,0.7-0.9,0.9c-0.3,0.3-0.7,0.5-1.2,0.8
				c-0.4,0.1-0.8,0.4-1.1,0.7c-0.4,0.3-0.7,0.5-1.1,0.8c-0.1,0.1-0.4,0.3-0.7,0.4c-0.3,0.1-0.4,0.3-0.7,0.4H62c0,0,0,0-0.1,0
				c-0.4,0-0.8,0.1-1.1,0.4c-0.3,0.3-0.7,0.4-1.1,0.5c-0.1,0-0.3,0-0.5,0.1c-0.3,0.1-0.4,0.1-0.5,0.3c-0.1,0-0.1,0.1-0.1,0.1
				l-0.1,0.1c-0.7,0.3-1.5,0.5-2.1,0.8c-0.7,0.3-1.5,0.4-2.1,0.4c-0.5,0-1.2,0.1-1.7,0.1c-0.5,0-1.1,0.1-1.6,0.1
				c-0.3,0-0.7,0-0.9-0.1c-0.3,0-0.5-0.1-0.9-0.1c-0.3-0.1-0.5-0.1-0.8-0.1c-0.3,0-0.4-0.1-0.7-0.4c-0.1-0.1-0.3-0.1-0.5-0.1
				c-0.5,0.1-0.9,0-1.2-0.3c-0.3-0.3-0.5-0.5-0.8-1.1c0.7,0.9,0.7,0.8,0.5,0.7c-0.1-0.1-0.1-0.3-0.3-0.4c-0.1-0.1-0.4-0.4-0.5-0.7
				c-0.1-0.3-0.3-0.4-0.4-0.7c-0.3-0.5-0.5-1.1-0.8-1.5c-0.3-0.5-0.5-1.1-0.8-1.6c-0.1-0.4-0.3-0.9-0.4-1.3c-0.1-0.4-0.1-0.9,0-1.5
				c0-0.1,0-0.4-0.1-0.8c-0.1-0.8-0.1-1.6,0-2.3c0.1-0.8,0.3-1.6,0.4-2.4c0.3-0.9,0.5-1.7,0.8-2.5c0.3-0.8,0.7-1.7,1.1-2.5
				s0.7-1.5,0.9-2.1c0.3-0.7,0.7-1.5,1.1-2.1c0.5-0.9,1.1-1.9,1.6-2.8c0.5-0.9,1.1-1.9,1.6-2.9c0.1-0.3,0.4-0.5,0.7-0.8
				c0.3-0.3,0.4-0.5,0.7-0.8c0.5-0.7,0.9-1.3,1.5-2.1c0.4-0.7,0.9-1.3,1.5-2c0.7-0.8,1.3-1.7,2-2.5c0.7-0.8,1.3-1.6,2.1-2.5
				c0.7-0.7,1.2-1.5,1.9-2.1c0.7-0.7,1.2-1.3,1.9-2.1c0.4-0.4,0.8-0.8,1.3-1.2c0.4-0.4,0.8-0.8,1.3-1.2c0.4-0.5,0.9-0.9,1.3-1.5
				c0.4-0.5,0.9-0.9,1.5-1.5c0.5-0.5,1.2-1.1,1.7-1.5c0.5-0.5,1.2-1.1,1.7-1.5c0.8-0.8,1.7-1.5,2.5-2.3c0.7-0.5,1.5-0.9,2.3-1.3
				c0.4-0.1,0.9-0.4,1.5-0.5c0.4-0.1,0.9-0.3,1.3-0.4c1.7-0.4,3.3,0,4.7,0.9c0.3,0.3,0.5,0.5,0.8,0.8c0.3,0.3,0.5,0.5,0.8,0.9
				c0.1,0.1,0.3,0.4,0.4,0.5c0.1,0.1,0.3,0.4,0.3,0.7c0.1,0.1,0.1,0.4,0.1,0.5c0,0.1,0,0.4,0,0.5c0,0,0,0.1-0.1,0.1l-0.1,0.1
				c-0.1,0.1-0.1,0.1-0.3,0.3c0,0-0.1,0.1-0.1,0.3c-0.1,0.1-0.3,0.3-0.4,0.4c-0.1,0-0.3,0-0.4-0.1c-0.3-0.5-0.7-0.7-1.2-0.7
				c-0.4,0.1-0.9,0.3-1.3,0.4s-0.8,0.3-1.2,0.4c-0.4,0.1-0.8,0.4-1.2,0.5c-0.4,0.1-0.8,0.4-1.2,0.5c-0.4,0.1-0.8,0.4-1.1,0.7
				c-0.4,0.3-0.8,0.5-1.2,0.9c-0.4,0.3-0.8,0.7-1.2,0.9c-0.5,0.4-0.9,0.8-1.5,1.3c-0.4,0.4-0.8,0.9-1.3,1.3
				c-0.1,0.1-0.4,0.3-0.7,0.4c-0.3,0.1-0.4,0.3-0.7,0.5L66.5,85c-0.4,0.4-0.8,0.8-1.1,1.2c-0.3,0.4-0.7,0.8-1.2,1.1
				c-1.2,1.1-2.3,2.3-3.3,3.5c-0.9,1.2-2,2.4-2.9,3.7c-0.7,0.8-1.3,1.7-1.9,2.5c0.1,1.2-0.5,2-1.2,2.8c-0.3,0.4-0.7,0.8-0.9,1.3
				c-0.3,0.4-0.5,0.8-0.8,1.3c-0.3,0.4-0.7,0.9-0.9,1.3c-0.3,0.4-0.7,0.9-0.9,1.5c-0.4,0.8-0.9,1.7-1.3,2.5s-0.9,1.7-1.3,2.5
				c-0.4,0.9-0.8,2-1.2,2.9c-0.3,0.9-0.5,1.9-0.8,2.9c-0.1,0.1-0.1,0.4-0.1,0.5c0,0.1,0,0.4,0,0.5c0,0.4-0.1,0.8-0.1,1.2
				c0,0.4,0,0.8-0.1,1.2c0,0.5,0.3,0.8,0.8,0.5c0.3-0.1,0.4,0,0.5,0.1c0.4,0.3,0.8,0.5,1.2,0.7c0.4,0.1,0.9,0.1,1.5-0.1
				c0.4-0.1,0.8-0.3,1.2-0.3c0.4,0,0.7-0.1,1.1-0.3c0.9-0.4,1.9-0.7,2.8-1.1s1.9-0.8,2.7-1.3c0.5-0.4,1.2-0.8,1.7-1.1
				c0.5-0.3,1.2-0.7,1.9-1.1c0.3-0.1,0.7-0.4,0.9-0.7c0.3-0.3,0.7-0.5,0.9-0.8c0.7-0.5,1.3-1.1,2.1-1.6c0.7-0.5,1.3-1.1,2-1.6
				c0.5-0.4,1.1-0.9,1.6-1.3c0.5-0.5,1.1-0.9,1.6-1.5c0.1-0.1,0.3-0.3,0.5-0.4v0.1c-0.1,0.1-0.3,0.3-0.4,0.5
				c-0.1,0.1-0.3,0.4-0.4,0.5c-0.4,0.4-0.9,0.8-1.3,1.2c-0.5,0.4-0.9,0.8-1.5,1.2c-0.1,0.1-0.4,0.4-0.7,0.5
				c-0.3,0.1-0.5,0.3-0.8,0.5c-0.1,0.1-0.1,0.1-0.3,0.3c-0.1,0-0.1,0.1-0.3,0.3c-0.1,0.1-0.3,0.4-0.3,0.4c0,0.1,0.1,0.3,0.4,0.4v0.1
				c-0.1,0.1-0.4,0.1-0.4,0.1c-0.1,0-0.3,0.1-0.5,0.1c-0.4,0.1-0.7,0.3-0.9,0.7c-0.1,0.3-0.3,0.5-0.4,0.8c-0.1,0.3-0.4,0.4-0.8,0.5
				c-0.4,0.1-0.5,0.4-0.3,0.9c-0.1,0-0.1,0.1-0.3,0.1c0,0-0.1,0.1-0.3,0.1c-0.5,0.1-1.1,0.4-1.6,0.7c-0.5,0.3-1.1,0.5-1.6,0.7
				c-0.1,0.1-0.4,0.1-0.5,0.3c-0.1,0.1-0.4,0.1-0.5,0.3c-0.1,0.1-0.1,0.1-0.1,0.3c0,0.1,0,0.1,0,0.3s0.1,0.1,0.3,0.1s0.1,0,0.3,0
				c0.3-0.1,0.5-0.1,0.7-0.4c0.3-0.1,0.4-0.3,0.7-0.4c0.1-0.1,0.1-0.1,0.4-0.1c0.1,0,0.3,0,0.4,0c0.1,0.1,0.4,0.1,0.5,0
				c0.1-0.1,0.3-0.3,0.5-0.4c0.4-0.3,0.9-0.7,1.3-0.9c0.5-0.3,0.9-0.7,1.3-0.9c0.3-0.3,0.7-0.5,0.9-0.7s0.7-0.4,0.8-0.7
				c0.1-0.1,0.3-0.3,0.4-0.3s0.3-0.1,0.4-0.3c0.3-0.3,0.7-0.5,0.9-0.7c0.3-0.3,0.7-0.5,0.9-0.8c0.1,0,0.3,0,0.4,0
				c0.1,0,0.4,0,0.5-0.1c0.1,0,0.4-0.1,0.5-0.4c0-0.1,0-0.1,0.1-0.3c0.5-0.4,0.9-0.8,1.5-1.2c0.4-0.4,0.9-0.7,1.5-1.1
				c0.4-0.3,0.8-0.7,1.2-0.9c0.4-0.3,0.8-0.7,1.2-0.9c0.5-0.3,0.5-0.7,0.3-0.9c-0.3,0.1-0.5,0.3-0.8,0.4c-0.3,0.1-0.5,0.3-0.8,0.4
				c-0.1,0-0.1,0-0.1,0.1c-0.3,0.5-0.7,0.8-1.1,1.1c-0.5,0.1-0.9,0.5-1.2,0.9h-0.1c-0.1,0.1-0.1,0.1-0.1,0.1
				c-0.1,0.3-0.3,0.4-0.5,0.5c-0.3,0.1-0.4,0.1-0.7,0.3l-0.1-0.1c0.1-0.1,0.3-0.3,0.4-0.4c0.1-0.1,0.3-0.3,0.4-0.4
				c0.4-0.4,0.8-0.8,1.2-1.2c0.4-0.4,0.8-0.8,1.2-1.2c0.1,0,0.1-0.1,0.3-0.3c0.8-0.4,1.5-1.1,2.1-1.7s1.3-1.3,2-1.9
				c0.3-0.3,0.7-0.5,0.9-0.7c0.3-0.3,0.7-0.5,0.9-0.8c0.1-0.3,0.4-0.4,0.5-0.5c0.1-0.1,0.4-0.3,0.5-0.4c0.1-0.1,0.4-0.3,0.5-0.5
				c0.1-0.1,0.4-0.4,0.5-0.5c0.4-0.5,0.8-1.2,1.2-1.7c0.3-0.7,0.5-1.3,0.7-2c-1.9,1.9-3.7,3.7-5.6,5.6c-1.9,1.9-3.9,3.6-5.9,5.2
				l-0.1-0.1c0.1-0.1,0.1-0.3,0.3-0.3c0.4-0.4,0.8-0.8,1.2-1.2c0.4-0.4,0.8-0.7,1.2-1.1c0.3-0.3,0.5-0.5,0.8-0.7
				c0.3-0.3,0.5-0.5,0.8-0.7c0.8-0.7,1.5-1.3,2.1-2c0.7-0.7,1.5-1.5,2.1-2.1c0.4-0.5,0.9-1.1,1.5-1.5c0.5-0.5,0.9-1.1,1.3-1.6
				c0.4-0.5,0.8-0.9,1.2-1.5c0.4-0.4,0.7-0.9,0.9-1.5c0.3-0.5,0.1-0.8-0.4-0.7c-0.4,0.1-0.9,0.3-1.5,0.4c-0.4,0.1-0.9,0.3-1.3,0.4
				s-0.8,0.3-1.3,0.4c-0.4,0.1-0.8,0.3-1.3,0.4c-0.4,0.1-0.7,0.3-1.1,0.3c-0.4,0.1-0.7,0.3-1.1,0.4c-0.5,0.1-1.1,0.4-1.6,0.7
				c-0.5,0.3-0.9,0.4-1.5,0.7c-0.1,0.1-0.1,0.1-0.3,0.1s-0.3,0-0.3,0c-0.4,0.1-0.7,0.1-1.1,0.3c-0.4,0-0.7,0.1-0.9,0.3
				c-0.4,0.1-0.7,0.3-0.9,0.1c-0.3-0.1-0.5-0.3-0.7-0.7c-0.3-0.7-0.3-1.6,0.1-2.5c0.1-0.1,0.1-0.4,0-0.4c-0.1-0.1-0.3-0.4,0-0.8
				c0.1-0.3,0.3-0.7,0.4-0.9c0.1-0.3,0.3-0.5,0.5-0.8c0.1-0.1,0.1-0.1,0.3-0.3c0-0.1,0.1-0.1,0.3-0.1c0.4-0.1,0.9-0.3,1.2-0.5
				c0.4-0.3,0.8-0.5,1.2-0.7c0.7-0.3,1.3-0.5,1.9-0.8c0.7-0.3,1.2-0.5,1.9-0.7c0.7-0.1,1.3-0.4,1.9-0.4c0.7-0.1,1.2-0.3,1.9-0.4
				c0.3-0.1,0.7-0.1,0.9-0.3c0.3-0.1,0.5-0.1,0.9-0.1c0.5,0.1,1.2,0,1.7-0.3c0.5-0.3,1.2-0.4,1.7-0.5c0.7-0.1,1.3-0.1,2-0.3
				c0.7-0.1,1.3-0.3,1.9-0.3c0.1,0,0.4-0.1,0.4-0.3c0.1-0.1,0.3-0.3,0.4-0.4c0.1,0.1,0.1,0.1,0.3,0.3c0.1,0,0.1,0.1,0.3,0.3
				c0.1-0.1,0.1-0.3,0.1-0.4c0-0.1,0.1-0.3,0.1-0.4c0-0.1,0-0.3,0-0.4c0-0.1,0-0.3,0-0.3s0,0,0.1,0c0,0,0,0,0.1,0c0,0.1,0,0.3,0,0.4
				s0,0.3,0,0.4c0,0.4,0.1,0.7,0.5,0.5c0.3,0,0.7-0.1,0.9-0.1c0.3,0,0.5,0,0.9,0c0.5,0,1.1-0.1,1.6-0.1c0.5,0,1.1,0,1.6,0
				c0.4,0,0.9,0.3,1.6,0.7c0.7,0.4,1.1,0.7,1.2,1.1c0.4,0.5,0.8,0.9,1.2,1.3c0.3,0.1,0.4,0.4,0.4,0.8c0,0.3,0.1,0.5,0.3,0.8
				c0.7,0.7,0.9,1.6,0.7,2.8c0,0.1,0,0.4,0,0.7c0,0.3,0,0.4-0.1,0.7c-0.1,0.1-0.1,0.3-0.3,0.4s-0.3,0.3-0.4,0.4
				c-0.1,0.1-0.3,0.1-0.4,0.3c-0.1,0-0.3,0.1-0.4,0.3c-0.3,0.1-0.4,0.1-0.5,0s-0.3-0.1-0.5-0.3c-0.1-0.1-0.3-0.3-0.1-0.4
				c0-0.1,0.1-0.3,0.1-0.4c0.1-0.3,0.3-0.7,0.3-0.9c0-0.3,0.1-0.5,0.3-0.8c0.1-0.5,0-0.8-0.4-0.8c-0.3,0-0.7,0-1.1,0
				c-0.4,0-0.8,0.1-1.3,0.1c-0.4,0-0.9,0.1-1.3,0.1c-0.4,0-0.8,0.1-1.1,0.1C96.3,91.6,96.3,91.6,96.1,91.7z M156,79.8
				c-0.3,0.9-0.8,1.7-1.2,2.7c-0.5,0.8-0.9,1.7-1.3,2.5s-0.8,1.7-1.2,2.5c-0.1,0.1-0.1,0.4-0.3,0.4c-0.5,0.7-0.8,1.3-1.1,1.9
				c-0.3,0.5-0.4,1.3-0.5,2.3c0,0.1-0.1,0.4-0.3,0.7c-0.1,0.3-0.3,0.5-0.4,0.8c-0.1,0.3-0.3,0.5-0.4,0.8c-0.1,0.3-0.3,0.4-0.4,0.5
				s-0.1,0.1-0.1,0.1l-0.1,0.1c0.1,0.4,0,0.8-0.3,1.1c-0.3,0.3-0.5,0.5-0.7,0.9c-0.1,0.1-0.3,0.4-0.4,0.7c-0.1,0.3-0.1,0.4,0,0.7
				c0,0.1,0,0.4-0.3,0.7c-0.1,0.3-0.3,0.4-0.4,0.7c-0.1,0.4-0.4,0.8-0.4,1.2c-0.1,0.4-0.3,0.8-0.4,1.2c-0.1,0.1-0.1,0.4-0.3,0.5
				c-0.1,0.1-0.3,0.3-0.3,0.4c-0.1,0.1-0.1,0.3-0.1,0.4c0,0.1-0.1,0.3-0.1,0.4c0,0.1,0,0.1,0,0.3v0.1c-0.3,0.3-0.4,0.5-0.4,0.9
				c0,0.3-0.1,0.7-0.3,0.9c0,0.3-0.1,0.5-0.3,0.7c-0.1,0.3-0.3,0.4-0.4,0.7c-0.1,0.1-0.3,0.4-0.3,0.7c0,0.3-0.1,0.4-0.3,0.7
				c-0.1,0.1-0.1,0.4-0.3,0.5c-0.1,0.1-0.1,0.3-0.3,0.5c-0.1,0.4-0.3,0.8-0.5,1.3c-0.1,0.4-0.4,0.9-0.5,1.3c-0.4,1.1-0.8,2-1.1,3.1
				c-0.3,1.1-0.7,2-1.2,3.1c-0.1,0.4-0.4,0.8-0.4,1.3c-0.1,0.4-0.3,0.8-0.5,1.2c0.1,0.4,0.1,0.8-0.1,1.2c-0.3,0.3-0.4,0.7-0.7,0.9
				c-0.1,0.1-0.1,0.3-0.1,0.4c-0.1,1.1-0.4,2.3-0.9,3.6c0,0.1-0.1,0.1-0.1,0.3s0,0.3-0.1,0.3c-0.1,0.5-0.1,1.1-0.3,1.7
				c-0.1,0.5-0.3,1.2-0.3,1.7c-0.1,0.1-0.1,0.1-0.1,0.3c-0.4,0.7-0.7,1.3-0.7,2c0,0.7-0.1,1.3-0.3,2.1c-0.3,1.3-0.9,2.4-2.1,3.2
				c-0.4-0.1-0.7-0.3-1.1-0.4c-0.4-0.1-0.7-0.3-0.9-0.4c-0.5-0.4-0.9-1.1-1.2-2c-0.4-1.2-0.7-2.5-0.4-4c0.1-0.9,0.1-1.7,0.1-2.7
				c0-0.8,0.1-1.7,0.3-2.7c0.1-0.8,0.3-1.6,0.4-2.4c0.1-0.8,0.4-1.6,0.7-2.4c0.4-1.6,0.9-3.2,1.3-4.7c0.5-1.6,1.1-3.1,1.6-4.7
				c0.7-2,1.3-4,2.1-5.9c0.7-2,1.5-3.9,2.1-5.9c0.4-1.2,0.9-2.4,1.3-3.6c0.4-1.2,0.9-2.4,1.3-3.6c0.1-0.3,0.3-0.7,0.4-0.9
				c0.1-0.3,0.3-0.7,0.4-0.9c0.8-1.9,1.6-3.7,2.4-5.6c0.8-1.9,1.6-3.7,2.3-5.6c0.5-1.3,1.1-2.7,1.6-4c0.5-1.3,1.1-2.7,1.6-4
				c0-0.1,0.1-0.1,0.1-0.3s0-0.3,0.1-0.5c-0.4,0.3-0.8,0.5-1.2,0.8c-0.3,0.3-0.7,0.5-0.8,0.8c-0.4,0.5-0.9,1.1-1.3,1.5
				c-0.5,0.4-0.9,1.1-1.2,1.7c-0.1,0.1-0.1,0.1-0.3,0.3c-0.1,0.1-0.1,0.1-0.3,0.3c-1.7,1.7-3.2,3.5-4.4,5.5
				c-0.1,0.3-0.4,0.7-0.7,0.9c-0.3,0.3-0.5,0.5-0.7,0.9c-0.4,0.8-0.9,1.6-1.5,2.3c-0.5,0.7-1.1,1.5-1.3,2.4
				c-0.1,0.5-0.5,1.1-0.9,1.6s-0.8,1.1-1.1,1.6c-0.1,0.1-0.1,0.3-0.3,0.4c-0.1,0.1-0.4,0.4-0.7,0.5c-0.3,0.1-0.4,0.5-0.5,0.9
				c0,0.1-0.1,0.1-0.3,0.3s-0.3,0.1-0.4,0.3c0.1,0.3,0.1,0.7,0.1,0.9s0.1,0.7,0.1,0.9c-0.4,0.7-0.9,1.5-1.3,2.3
				c-0.5,0.8-0.9,1.6-1.5,2.4c-0.3,0.5-0.5,1.1-0.8,1.6c-0.3,0.5-0.5,1.1-0.8,1.6c-1.5,2.8-3.1,5.6-4.6,8.4
				c-1.5,2.8-2.9,5.6-4.4,8.4c-0.3,0.7-0.7,1.2-0.9,1.7c-0.3,0.5-0.7,1.1-1.2,1.6c-0.1,0.1-0.4,0.4-0.5,0.5
				c-0.1,0.1-0.4,0.3-0.5,0.4c-0.3,0.1-0.5,0.3-0.8,0.4c-0.3,0.1-0.5,0-0.7-0.3h-0.1c-0.5,0-0.9-0.1-1.2-0.4
				c-0.3-0.3-0.5-0.5-0.7-0.8c-0.1-0.3-0.1-0.7-0.3-1.1c0-0.4,0-0.8,0-1.2c0.1-0.8,0.1-1.5,0.4-2.1c0.1-0.7,0.3-1.5,0.5-2.1
				c0.4-1.5,0.9-2.9,1.3-4.4c0.4-1.5,0.9-2.9,1.3-4.4c0.4-1.6,0.9-3.1,1.3-4.7s0.9-3.1,1.3-4.7c0.3-1.1,0.7-2.3,0.9-3.5
				c0.3-1.2,0.5-2.3,0.8-3.5c0.1-0.4,0.3-0.8,0.3-1.3c0.1-0.4,0.1-0.9,0.3-1.5c-0.1,0.1-0.3,0.1-0.3,0.1c-0.1,0-0.1,0.1-0.3,0.1
				c-0.4,0.5-0.7,1.1-1.1,1.6c-0.4,0.5-0.7,1.1-0.9,1.6c-0.7,1.2-1.3,2.3-1.9,3.5c-0.5,1.2-1.2,2.3-1.9,3.5
				c-0.8,1.5-1.6,2.9-2.4,4.3c-0.1,0.4-0.4,0.7-0.5,1.1s-0.4,0.7-0.5,1.1c-0.3,0.3-0.5,0.5-0.9,0.9c0.1,0.5,0.1,0.9-0.1,1.3
				c-0.3,0.4-0.5,0.9-0.8,1.3c-0.3,0.4-0.5,0.9-0.8,1.5c-0.3,0.5-0.4,1.1-0.7,1.5c-0.4,0.8-0.7,1.5-1.1,2.1s-0.7,1.5-0.9,2.1
				c-0.3,0.9-0.7,1.9-1.1,2.7c-0.5,0.9-0.8,1.9-0.8,2.8c0,0.3-0.1,0.5-0.3,0.7c-0.3,0.3-0.4,0.5-0.7,0.7c-0.3,0.3-0.4,0.7-0.4,0.9
				c0,0.3,0,0.5,0.1,0.9c0.1,0.4,0.1,0.8,0.1,0.9s-0.3,0.4-0.5,0.8c-0.3-0.1-0.5-0.3-0.7-0.3c-0.3-0.1-0.4-0.1-0.7-0.3
				c-0.3-0.1-0.4-0.3-0.7-0.4c-0.3-0.1-0.4-0.4-0.7-0.7c-0.5-0.8-0.9-1.7-0.9-2.7c-0.1-0.9-0.1-1.9,0-2.9c0.1-2.3,0.7-4.6,1.3-6.7
				c0.7-2.1,1.5-4.3,2.4-6.6c0.4-0.8,0.7-1.6,0.9-2.4c0.3-0.8,0.7-1.6,0.9-2.4c0.3-0.5,0.5-1.1,0.8-1.6c0.3-0.5,0.5-1.1,0.8-1.6
				c0.5-0.9,0.9-2,1.3-2.9s0.9-2,1.5-2.9c0.7-1.3,1.3-2.7,2-3.9c0.7-1.2,1.3-2.5,2-3.9c0.7-1.2,1.2-2.4,1.9-3.5
				c0.7-1.2,1.2-2.3,1.9-3.5c0.1-0.1,0.1-0.1,0.3-0.3c0-0.1,0.1-0.3,0.1-0.3c-0.1-0.8,0.1-1.2,0.9-1.6c0.3-0.1,0.5-0.3,0.8-0.5
				c0.3-0.3,0.5-0.3,0.9-0.1c0.1,0,0.1,0,0.3,0c0.1,0,0.3-0.1,0.3-0.1c0.1,0,0.3,0,0.3,0c0.1,0,0.1,0.1,0.1,0.3
				c0,0.1,0.1,0.1,0.3,0.1c0.5-0.1,1.1-0.1,1.3,0c0.4,0.1,0.8,0.4,1.2,0.5c0.3,0.1,0.7,0.3,0.9,0.4c0.3,0.1,0.5,0.3,0.7,0.4
				c0.3,0.3,0.7,0.5,0.9,0.5c0.4,0,0.7,0.3,0.9,0.5c0.4,0.4,0.5,0.9,0.5,1.3c-0.1,0.7-0.1,1.2-0.3,1.9c-0.1,0.7-0.1,1.2-0.4,1.7
				c-0.1,0.4-0.1,0.8-0.3,1.3c-0.1,0.4-0.3,0.9-0.4,1.3c-0.3,1.1-0.7,2.3-0.9,3.5c-0.3,1.2-0.7,2.3-1.1,3.5
				c-0.1,0.5-0.3,1.1-0.4,1.5c0,0.5-0.1,0.9-0.4,1.5c-0.1,0.5-0.4,0.9-0.7,1.5c-0.3,0.4-0.4,0.9-0.4,1.5c-0.1,0.4-0.3,0.8-0.3,1.2
				c-0.1,0.4-0.3,0.8-0.4,1.2c-0.1,0.1-0.1,0.4,0,0.7c0,0.1,0,0.1,0,0.3s0,0.3,0,0.3c-0.1,0.5-0.4,1.1-0.5,1.6
				c-0.1,0.5-0.4,1.1-0.5,1.6c-0.1,0.4-0.3,0.9-0.4,1.3c-0.1,0.4-0.3,0.9-0.4,1.3c-0.3,0.5-0.4,1.2-0.5,1.7
				c-0.1,0.5-0.4,1.2-0.8,1.7c-0.1,0.1-0.1,0.3-0.3,0.5c-0.1,0.5-0.4,1.2-0.5,1.7c-0.1,0.7-0.3,1.2-0.5,1.9
				c-0.1,0.3-0.3,0.7-0.4,0.9c-0.1,0.3-0.3,0.7-0.5,0.9c0,0.1,0,0.1,0,0.3c0,0.1-0.1,0.3-0.1,0.5c0.1-0.1,0.4-0.3,0.4-0.4
				c0.1-0.1,0.1-0.1,0.3-0.3c0.8-1.5,1.6-2.8,2.3-4.3c0.8-1.5,1.6-2.8,2.4-4.3c0.9-1.7,2-3.5,2.9-5.4c0.9-1.7,2-3.5,3.1-5.4
				c0.8-1.3,1.6-2.7,2.4-4c0.8-1.3,1.7-2.7,2.5-4c0.8-1.3,1.6-2.7,2.5-3.9c0.8-1.3,1.7-2.5,2.5-3.9c1.1-1.7,2.3-3.3,3.6-5
				c1.3-1.6,2.7-3.1,4-4.6c1.1-1.2,2.3-2.4,3.3-3.5c1.2-1.1,2.4-2.1,3.7-3.1c0.3-0.1,0.5-0.3,0.7-0.4c0.3-0.1,0.5-0.3,0.7-0.3
				c0.4,0.1,0.7,0.3,0.9,0.4s0.7,0.3,0.9,0.4c-0.1,0.8,0.1,1.2,0.9,1.3c0.7,0.1,1.2,0.3,1.6,0.8c0.4,0.4,0.7,0.8,1.1,1.3
				c0.1,0.3,0.3,0.4,0.3,0.7c0,0.9,0.1,2,0.1,2.9s-0.3,2-0.8,2.9C156.6,78,156.2,78.8,156,79.8z"/>
			<path class="st6" d="M100,195.5c-52.6,0-95.5-42.8-95.5-95.5S47.4,4.5,100,4.5s95.5,42.8,95.5,95.5S152.8,195.5,100,195.5z
				 M100,13.2c-47.8,0-86.8,38.8-86.8,86.8c0,47.8,39,86.8,86.8,86.8s86.8-39,86.8-86.8C186.8,52.1,147.8,13.2,100,13.2z"/>
			<g>
				<path class="st7" d="M132.1,41.6c-3.1,6.8-4.8,13.9-5.5,21.2c-8.3,3.3-17.3,5.1-26.6,5.1c-9.2,0-18.3-1.7-26.6-5.1
					c-0.8-0.3-1.5-0.7-2.3-0.9c-7.2-3.2-13.7-7.6-19.1-13.1c-0.3-0.3-0.5-0.5-0.8-0.8c-2.3-3.1-2.1-7.5,0.8-10.4
					c0.3-0.3,0.5-0.4,0.8-0.7c0,0,0.1,0,0.1-0.1c1.3-1.1,2.9-1.6,4.7-1.6c2.1,0,4.2,0.8,5.6,2.3c0.3,0.3,0.7,0.7,0.9,0.9
					c1.2,1.1,2.4,2.1,3.7,3.1c8.8,6.7,20.1,10.3,32,10.3C111.9,52.1,123.3,48.3,132.1,41.6z"/>
				<path class="st8" d="M55,115c-0.5,0.7-1.1,1.2-1.6,1.9c-5.2,5.8-11.4,10.6-18.3,14.2c-0.4,0.1-0.7,0.3-1.1,0.4
					c-0.8,0.3-1.6,0.4-2.5,0.4c-3.1,0-5.8-1.6-7.1-4.3c-0.1-0.3-0.3-0.5-0.4-0.8c-0.1-0.3-0.1-0.4-0.3-0.7c-0.4-1.5-0.4-3.1,0.1-4.6
					c0.7-2,2-3.6,4-4.7c0.4-0.3,0.8-0.4,1.2-0.7c1.5-0.8,2.8-1.6,4.2-2.5l0,0c18.7-13,27.3-39.4,19.8-60.9c5.5,5,11.8,8.8,18.5,11.8
					C72.7,82.5,66.7,101.1,55,115z"/>
				<path class="st9" d="M107.9,173.8c0,1.7-0.5,3.3-1.5,4.7c-1.2,1.7-3.1,2.8-5.2,3.2c-0.4,0-0.8,0.1-1.1,0.1l0,0l0,0
					c0,0,0,0-0.1,0c-3.9,0-7.2-2.8-7.9-6.7c-0.1-0.4-0.1-0.9-0.3-1.3c-0.3-1.6-0.7-3.2-1.2-4.7c-6.4-21.3-28-37.8-50.9-37.8
					c-0.3,0-0.7,0-0.9,0c6.4-3.7,12.1-8.4,16.9-13.9c10.2,2.5,20,7.5,28.3,14.5c5.9,5,10.8,10.6,14.7,16.7c0.4,0.7,0.8,1.3,1.3,2.1
					c3.9,6.8,6.6,14.2,7.8,21.8C107.9,173,107.9,173.4,107.9,173.8L107.9,173.8z"/>
				<path class="st10" d="M176.6,125.3c0,0.3-0.1,0.5-0.1,0.7c0,0.1,0,0.1,0,0.3s-0.1,0.3-0.1,0.4l0,0c-1.1,3.2-4,5.4-7.5,5.4
					c-0.4,0-0.8,0-1.2-0.1c-0.4-0.1-0.9-0.1-1.3-0.1c-1.6-0.3-3.2-0.3-5-0.4c-0.3,0-0.7,0-0.9,0c-10.8,0-21.8,3.7-31.1,10.4
					c-9.6,7-16.6,16.7-19.8,27.3c-1.5-7.2-4.3-14.1-8-20.4c4.7-7.6,11-14.3,18.5-19.8c7.5-5.4,15.8-9.4,24.5-11.5
					c0.8-0.3,1.6-0.4,2.4-0.5c4.4-0.9,9-1.5,13.5-1.5c3.2,0,6.6,0.3,9.6,0.8c0.4,0,0.8,0.1,1.2,0.3
					C174.9,117.5,177.3,121.3,176.6,125.3z"/>
				<path class="st11" d="M167,113.7c-7.2-0.8-14.6-0.3-21.8,1.3c-11.6-13.9-17.7-32.4-16.5-50.6c0-0.8,0.1-1.6,0.3-2.5
					c0.8-7.6,2.9-15.3,6.6-22.2c0.1-0.4,0.4-0.7,0.7-1.1c1.5-2.1,3.9-3.3,6.6-3.3c1.2,0,2.4,0.3,3.6,0.8c0.4,0.1,0.7,0.4,0.9,0.5
					c0.1,0.1,0.3,0.1,0.4,0.3c0.1,0.1,0.1,0.1,0.3,0.3c2.7,2.3,3.5,6.3,1.9,9.6c-0.3,0.4-0.4,0.8-0.7,1.2c-0.7,1.5-1.3,2.9-1.9,4.6
					C139.8,74.2,148.3,100.5,167,113.7z"/>
				<path class="st7" d="M100,43.6c-7.1,0-12.7-5.8-12.7-12.7S93,18.2,100,18.2c7.1,0,12.7,5.8,12.7,12.7S107.1,43.6,100,43.6z"/>
				<path class="st8" d="M33,92.4c-1.3,0-2.7-0.3-3.9-0.7c-6.7-2.1-10.3-9.4-8.2-16.1c1.7-5.2,6.6-8.8,12.2-8.8
					c1.3,0,2.7,0.3,3.9,0.7c6.7,2.1,10.3,9.4,8.2,16.1C43.5,88.8,38.5,92.4,33,92.4z"/>
				<path class="st9" d="M58.6,171.1c-2.7,0-5.4-0.8-7.5-2.4c-5.8-4.2-7-12.2-2.8-17.8c2.4-3.3,6.3-5.2,10.3-5.2
					c2.7,0,5.4,0.8,7.5,2.4c5.8,4.2,7,12.2,2.8,17.8C66.5,169.1,62.6,171.1,58.6,171.1z"/>
				<path class="st12" d="M141.5,171.1c-4,0-7.9-2-10.3-5.2c-4.2-5.8-2.8-13.7,2.8-17.8c2.1-1.6,4.8-2.4,7.5-2.4c4,0,7.9,2,10.3,5.2
					c4.2,5.8,2.8,13.7-2.8,17.8C146.7,170.3,144.2,171.1,141.5,171.1z"/>
				<path class="st11" d="M167.1,92.4c-5.5,0-10.4-3.5-12.2-8.8c-1.1-3.2-0.8-6.7,0.8-9.8c1.6-3.1,4.2-5.4,7.5-6.3
					c1.3-0.4,2.7-0.7,3.9-0.7c5.5,0,10.4,3.5,12.2,8.8c1.1,3.2,0.8,6.7-0.8,9.8c-1.6,3.1-4.2,5.4-7.5,6.3
					C169.8,92.1,168.4,92.4,167.1,92.4z"/>
			</g>
			<path class="st6" d="M98.7,91.3c0.4,0,0.9-0.1,1.3-0.1s0.8,0,1.1,0c0.4,0,0.5,0.3,0.4,0.8c-0.1,0.3-0.1,0.5-0.3,0.8
				c0,0.3-0.1,0.5-0.3,0.9c-0.1,0.1-0.1,0.3-0.1,0.4c0,0.1,0,0.3,0.1,0.4c0.1,0.1,0.4,0.3,0.5,0.3c0.1,0.1,0.3,0,0.5,0
				c0.1-0.1,0.3-0.1,0.4-0.3c0.1,0,0.3-0.1,0.4-0.3c0.1-0.1,0.3-0.3,0.4-0.4c0.1-0.1,0.3-0.3,0.3-0.4c0.1-0.1,0.1-0.4,0.1-0.7
				c0-0.3,0-0.4,0-0.7c0.1-1.2,0-2.1-0.7-2.8c-0.1-0.3-0.3-0.5-0.3-0.8c0-0.4-0.1-0.7-0.4-0.8c-0.4-0.3-0.8-0.8-1.2-1.3
				c-0.1-0.3-0.7-0.7-1.2-1.1c-0.7-0.4-1.2-0.5-1.6-0.7c-0.5,0-1.1,0-1.6,0c-0.5,0-1.1,0-1.6,0.1c-0.3,0-0.7,0-0.9,0s-0.5,0-0.9,0.1
				c-0.4,0.1-0.7-0.1-0.5-0.5c0-0.1,0-0.3,0-0.4c0-0.1,0-0.3,0-0.4c-0.1,0-0.1,0-0.1,0s0,0-0.1,0c0,0.1,0,0.1,0,0.3
				c0,0.1,0,0.3,0,0.4c-0.1,0.1-0.1,0.3-0.1,0.4s-0.1,0.3-0.1,0.4c-0.1-0.1-0.1-0.1-0.3-0.3c-0.1,0-0.1-0.1-0.3-0.3
				c-0.1,0.1-0.4,0.3-0.4,0.4c-0.1,0.1-0.3,0.3-0.4,0.3c-0.7,0.1-1.2,0.3-1.9,0.3c-0.7,0.1-1.3,0.1-2,0.3c-0.5,0.1-1.2,0.3-1.7,0.5
				c-0.5,0.3-1.2,0.4-1.7,0.3c-0.3,0-0.7,0-0.9,0.1c-0.3,0.1-0.5,0.3-0.9,0.3c-0.7,0.1-1.2,0.4-1.9,0.4c-0.7,0.1-1.2,0.3-1.9,0.4
				c-0.7,0.1-1.2,0.4-1.9,0.7c-0.7,0.3-1.2,0.5-1.9,0.8c-0.4,0.1-0.8,0.4-1.2,0.7c-0.4,0.3-0.8,0.5-1.2,0.5c-0.1,0-0.1,0-0.3,0.1
				c0,0.1-0.1,0.1-0.3,0.3c-0.3,0.3-0.4,0.5-0.5,0.8c-0.1,0.3-0.3,0.5-0.4,0.9c-0.1,0.4-0.1,0.7,0,0.8c0.1,0.1,0.1,0.3,0,0.4
				c-0.4,0.9-0.5,1.9-0.1,2.5c0.1,0.4,0.4,0.5,0.7,0.7c0.3,0.1,0.7,0,0.9-0.1c0.3-0.1,0.7-0.3,0.9-0.3c0.4,0,0.7-0.1,1.1-0.3
				c0.1,0,0.1,0,0.3,0s0.3,0,0.3-0.1c0.5-0.3,1.1-0.4,1.5-0.7c0.5-0.3,1.1-0.4,1.6-0.7c0.4-0.1,0.7-0.3,1.1-0.4
				c0.4-0.1,0.7-0.3,1.1-0.3c0.4-0.1,0.8-0.3,1.3-0.4c0.4-0.1,0.8-0.3,1.3-0.4c0.4-0.1,0.9-0.4,1.3-0.4c0.4-0.1,0.9-0.3,1.5-0.4
				c0.5-0.1,0.7,0.1,0.4,0.7c-0.1,0.5-0.5,1.1-0.9,1.5c-0.4,0.4-0.8,0.9-1.2,1.5c-0.4,0.5-0.9,1.1-1.3,1.6c-0.5,0.5-0.9,0.9-1.5,1.5
				c-0.8,0.7-1.5,1.5-2.1,2.1c-0.7,0.7-1.5,1.3-2.1,2c-0.3,0.3-0.5,0.5-0.8,0.7c-0.3,0.3-0.5,0.5-0.8,0.7c-0.4,0.4-0.8,0.7-1.2,1.1
				s-0.8,0.8-1.2,1.2c-0.1,0-0.1,0.1-0.3,0.3l0.1,0.1c2.1-1.7,4.2-3.5,5.9-5.2c1.9-1.9,3.7-3.7,5.6-5.6c-0.1,0.7-0.4,1.3-0.7,2
				c-0.3,0.7-0.7,1.2-1.2,1.7c-0.1,0.1-0.3,0.4-0.5,0.5c-0.1,0.1-0.4,0.4-0.5,0.5c-0.1,0.1-0.4,0.3-0.5,0.4
				c-0.1,0.1-0.4,0.3-0.5,0.5c-0.3,0.3-0.5,0.5-0.9,0.8c-0.3,0.3-0.7,0.5-0.9,0.7c-0.8,0.5-1.5,1.2-2,1.9c-0.7,0.7-1.3,1.2-2.1,1.7
				c0,0.1-0.1,0.1-0.3,0.3c-0.4,0.4-0.8,0.8-1.2,1.2c-0.4,0.4-0.8,0.8-1.2,1.2c-0.1,0.1-0.3,0.3-0.4,0.4c-0.1,0.1-0.3,0.3-0.4,0.4
				L70,111c0.1-0.1,0.4-0.3,0.7-0.3c0.3-0.1,0.4-0.3,0.5-0.5c0,0,0-0.1,0.1-0.1h0.1c0.4-0.4,0.8-0.7,1.2-0.9
				c0.4-0.1,0.8-0.5,1.1-1.1c0-0.1,0-0.1,0.1-0.1c0.3-0.1,0.5-0.3,0.8-0.4c0.3-0.1,0.5-0.3,0.8-0.4c0.4,0.4,0.3,0.7-0.3,0.9
				c-0.4,0.3-0.8,0.7-1.2,0.9c-0.4,0.3-0.8,0.7-1.2,0.9c-0.5,0.4-0.9,0.7-1.5,1.1c-0.4,0.4-0.9,0.8-1.5,1.2
				c-0.1,0.1-0.1,0.3-0.1,0.3c-0.1,0.1-0.3,0.3-0.5,0.4c-0.1,0-0.4,0.1-0.5,0.1c-0.1,0-0.3,0-0.4,0c-0.3,0.3-0.7,0.5-0.9,0.8
				c-0.3,0.3-0.7,0.5-0.9,0.7c-0.1,0.1-0.3,0.1-0.4,0.3c-0.1,0-0.3,0.1-0.4,0.3c-0.3,0.3-0.5,0.5-0.8,0.7c-0.3,0.1-0.7,0.4-0.9,0.7
				c-0.4,0.3-0.9,0.7-1.3,0.9c-0.4,0.3-0.9,0.7-1.3,0.9c-0.1,0.1-0.4,0.3-0.5,0.4c-0.1,0.1-0.3,0.1-0.5,0c-0.1,0-0.1,0-0.4,0
				c-0.1,0-0.3,0.1-0.4,0.1c-0.3,0.1-0.5,0.1-0.7,0.4c-0.3,0.1-0.4,0.3-0.7,0.4c-0.1,0-0.1,0-0.3,0c-0.1,0-0.1-0.1-0.3-0.1
				c0-0.1,0-0.1,0-0.3s0.1-0.1,0.1-0.3c0.1-0.1,0.3-0.1,0.5-0.3c0.1-0.1,0.4-0.1,0.5-0.3c0.5-0.3,1.1-0.5,1.6-0.7
				c0.5-0.3,1.1-0.5,1.6-0.7c0.1,0,0.1-0.1,0.3-0.1c0,0,0.1-0.1,0.3-0.1c-0.3-0.5-0.1-0.8,0.3-0.9c0.4-0.1,0.7-0.3,0.8-0.5
				c0.1-0.3,0.3-0.5,0.4-0.8c0.1-0.4,0.4-0.7,0.9-0.7c0.1,0,0.4-0.1,0.5-0.1s0.3-0.1,0.4-0.1c0-0.1,0-0.1,0-0.1
				c-0.3-0.1-0.4-0.3-0.4-0.4c0-0.1,0.1-0.3,0.3-0.4c0.1-0.1,0.1-0.1,0.3-0.3c0.1,0,0.1-0.1,0.3-0.3c0.3-0.1,0.5-0.4,0.8-0.5
				c0.3-0.1,0.5-0.3,0.7-0.5c0.5-0.4,0.9-0.8,1.5-1.2c0.4-0.4,0.9-0.8,1.3-1.2c0.1-0.1,0.3-0.3,0.4-0.5c0.1-0.1,0.3-0.4,0.4-0.5
				v-0.1c-0.3,0.1-0.4,0.3-0.5,0.4c-0.5,0.4-1.1,0.9-1.6,1.5c-0.5,0.5-1.1,0.9-1.6,1.3c-0.7,0.5-1.3,1.1-2,1.6
				c-0.7,0.5-1.3,1.1-2.1,1.6c-0.3,0.3-0.7,0.5-0.9,0.8c-0.3,0.3-0.7,0.5-0.9,0.7c-0.7,0.4-1.2,0.7-1.9,1.1
				c-0.5,0.3-1.2,0.7-1.7,1.1c-0.8,0.5-1.7,1.1-2.7,1.3c-0.9,0.4-1.9,0.8-2.8,1.1c-0.3,0.1-0.7,0.3-1.1,0.3s-0.8,0.1-1.2,0.3
				c-0.5,0.1-1.1,0.3-1.5,0.1s-0.8-0.3-1.2-0.7c-0.1-0.1-0.4-0.1-0.5-0.1c-0.5,0.3-0.8,0-0.8-0.5c0-0.4,0.1-0.8,0.1-1.2
				c0-0.4,0-0.8,0.1-1.2c0-0.1,0-0.4,0-0.5c0-0.1,0-0.4,0.1-0.5c0.1-0.9,0.4-2,0.8-2.9c0.3-0.9,0.7-1.9,1.2-2.9
				c0.4-0.9,0.9-1.7,1.3-2.5c0.4-0.8,0.9-1.7,1.3-2.5c0.3-0.5,0.7-0.9,0.9-1.5c0.3-0.4,0.7-0.9,0.9-1.3c0.3-0.4,0.5-0.8,0.8-1.3
				c0.3-0.4,0.5-0.8,0.9-1.3c0.7-0.8,1.2-1.6,1.9-2.4c0.7-0.8,1.2-1.6,1.9-2.5c0.9-1.3,1.9-2.5,2.9-3.7c0.9-1.2,2.1-2.3,3.3-3.5
				c0.4-0.4,0.8-0.7,1.2-1.1c0.3-0.4,0.7-0.8,1.1-1.2l3.6-3.6c0.1-0.1,0.4-0.4,0.7-0.5c0.3-0.1,0.4-0.3,0.7-0.4
				c0.4-0.4,0.8-0.8,1.3-1.3c0.4-0.4,0.9-0.9,1.5-1.3c0.4-0.3,0.8-0.7,1.2-0.9s0.8-0.7,1.2-0.9s0.7-0.5,1.1-0.7s0.8-0.4,1.2-0.5
				s0.8-0.4,1.2-0.5c0.4-0.1,0.8-0.3,1.2-0.4c0.4-0.1,0.8-0.4,1.3-0.4c0.4-0.1,0.8,0.1,1.2,0.7c0.1,0.1,0.1,0.3,0.4,0.1
				c0.1,0,0.3-0.1,0.4-0.4c0-0.1,0.1-0.1,0.1-0.3c0,0,0.1-0.1,0.3-0.3l0.1-0.1l0.1-0.1c0-0.1,0-0.4,0-0.5c0-0.1,0-0.4-0.1-0.5
				c-0.1-0.3-0.1-0.4-0.3-0.7c-0.1-0.1-0.3-0.4-0.4-0.5c-0.3-0.3-0.5-0.7-0.8-0.9c-0.3-0.3-0.5-0.5-0.8-0.8
				c-1.3-0.9-2.8-1.3-4.7-0.9c-0.4,0.1-0.9,0.3-1.3,0.4c-0.5,0.1-0.9,0.4-1.5,0.5c-0.8,0.4-1.6,0.8-2.3,1.3
				c-0.8,0.7-1.7,1.5-2.5,2.3c-0.5,0.5-1.2,1.1-1.7,1.5c-0.5,0.5-1.2,1.1-1.7,1.5c-0.5,0.4-0.9,0.9-1.5,1.5
				c-0.4,0.5-0.9,0.9-1.3,1.5c-0.4,0.4-0.8,0.8-1.3,1.2c-0.4,0.4-0.8,0.8-1.3,1.2c-0.7,0.7-1.3,1.3-1.9,2.1
				c-0.7,0.7-1.2,1.3-1.9,2.1c-0.8,0.8-1.5,1.6-2.1,2.5c-0.7,0.8-1.3,1.7-2,2.5c-0.5,0.7-1.1,1.3-1.5,2c-0.4,0.7-0.9,1.3-1.5,2.1
				c-0.1,0.3-0.4,0.5-0.7,0.8c-0.3,0.3-0.4,0.5-0.7,0.8c-0.5,1.1-1.1,2-1.6,2.9s-1.1,1.9-1.6,2.8c-0.4,0.7-0.8,1.5-1.1,2.1
				c-0.3,0.7-0.7,1.5-0.9,2.1c-0.4,0.8-0.8,1.7-1.1,2.5c-0.3,0.8-0.5,1.7-0.8,2.5c-0.1,0.8-0.3,1.6-0.4,2.4c-0.1,0.8-0.1,1.6,0,2.3
				c0.1,0.3,0.1,0.5,0.1,0.8c-0.1,0.5-0.1,0.9,0,1.5c0.1,0.4,0.1,0.9,0.4,1.3c0.3,0.5,0.5,1.1,0.8,1.6c0.3,0.5,0.5,1.1,0.8,1.5
				c0.1,0.1,0.3,0.4,0.4,0.7c0.1,0.3,0.3,0.4,0.5,0.7c0.1,0.1,0.1,0.3,0.3,0.4c0.1,0.1,0.1,0.3,0.3,0.4c0.1,0.4,0.4,0.8,0.8,1.1
				c0.3,0.3,0.7,0.4,1.2,0.3c0.3,0,0.4,0,0.5,0.1c0.1,0.3,0.4,0.4,0.7,0.4c0.3,0,0.5,0.1,0.8,0.1c0.3,0,0.7,0.1,0.9,0.1
				c0.3,0,0.5,0.1,0.9,0.1c0.5,0,1.1,0,1.6-0.1c0.5,0,1.1-0.1,1.7-0.1c0.8-0.1,1.5-0.3,2.1-0.4c0.7-0.3,1.5-0.5,2.1-0.8
				c0.1,0,0.1-0.1,0.1-0.1l0.1-0.1c0.1-0.1,0.3-0.1,0.5-0.3c0.3-0.1,0.5-0.1,0.5-0.1c0.4,0,0.8-0.1,1.1-0.5c0.3-0.3,0.7-0.4,1.1-0.4
				h0.1c0,0,0,0,0.1,0c0.1-0.1,0.4-0.3,0.7-0.4c0.3-0.1,0.4-0.3,0.7-0.4c0.4-0.3,0.8-0.5,1.1-0.8c0.4-0.3,0.7-0.5,1.1-0.7
				c0.4-0.3,0.8-0.5,1.2-0.8c0.3-0.3,0.7-0.5,0.9-0.9c0.7-0.8,1.3-1.5,2.1-2c0.4-0.3,0.7-0.5,1.1-0.7c0.4-0.3,0.7-0.5,0.8-0.9
				c0.1-0.1,0.1-0.3,0.4-0.3c0.1-0.1,0.3-0.1,0.4-0.1c0.8-0.3,1.3-0.8,1.7-1.5c0-0.1,0.1-0.3,0.4-0.4c0.4-0.4,0.8-0.8,1.2-1.1
				c0.1-0.1,0.1-0.1,0.4-0.3c0,0.1,0,0.1,0,0.3c0,0,0,0.1,0,0.3c0,0.1,0,0.3-0.1,0.4c0,0.1-0.1,0.3-0.3,0.4
				c-0.1,0.5-0.4,1.1-0.5,1.6c-0.1,0.5-0.4,1.2-0.5,1.7c-0.1,0.4-0.1,0.7-0.3,1.1c-0.1,0.4-0.3,0.7-0.4,1.1
				c-0.1,0.8-0.4,1.6-0.7,2.4c-0.1,0.4-0.3,0.8-0.4,1.2c-0.1,0.4-0.3,0.8-0.5,1.2c-0.1,0.4-0.3,0.9-0.4,1.5
				c-0.1,0.5-0.3,0.9-0.4,1.5c-0.1,0.4-0.3,0.9-0.4,1.3c-0.1,0.4-0.3,0.9-0.4,1.3c-0.1,0.4-0.3,0.7-0.4,0.9s-0.4,0.5-0.4,0.8
				c-0.1,0.3-0.1,0.5,0.1,0.8v0.1c0,0,0,0.1,0,0.3c-0.1,0.4-0.3,0.8-0.4,1.3c-0.1,0.4-0.3,0.9-0.3,1.3c-0.1,0.8-0.3,1.7-0.4,2.5
				c-0.1,0.8-0.3,1.7-0.3,2.7c0,0.5,0,1.1,0,1.6c0,0.5,0,1.1,0,1.6c0,0.9,0.1,1.9,0.4,2.8c0.1,0.7,0.3,1.2,0.4,1.9
				c0.1,0.7,0.3,1.2,0.5,1.7c0,0,0,0.1,0.1,0.3c0.4,0.4,0.8,0.8,1.2,1.2c0.4,0.4,0.9,0.7,1.5,0.9c0.3,0.1,0.7,0.3,0.9,0.4
				c0.3,0.1,0.7,0.1,0.9,0.1c0.3,0,0.4,0,0.7,0c0.3,0,0.5,0,0.8-0.1c0.1,0,0.3-0.1,0.5-0.4c-0.1-0.1-0.1-0.1-0.3-0.3
				c-0.1-0.1-0.1-0.1-0.3-0.1c-0.4,0-0.7,0-0.9-0.1c-0.3-0.1-0.4-0.4-0.5-0.7c-0.1-0.1-0.1-0.3-0.1-0.4c0-0.1,0-0.3-0.1-0.4
				c0-0.4,0-0.7-0.1-0.9c-0.1-0.3-0.1-0.7-0.3-0.9c0-0.3-0.1-0.7-0.1-0.9c0-0.3,0.1-0.7,0.3-1.1v-0.3c0-0.1,0-0.4,0-0.7
				c0-0.3,0-0.5,0-0.7c0.1-0.4,0-0.5-0.4-0.3h-0.3l-0.1-0.1c0.1-0.1,0.4-0.3,0.5-0.5c0.3-0.1,0.4-0.1,0.5-0.4
				c0.1-0.5,0.1-0.9,0.3-1.5c0-0.4,0.1-0.9,0.3-1.3c0.1-0.3,0.3-0.5,0.4-0.7c0.1-0.1,0.1-0.3,0.3-0.4c0.1-0.1,0.1-0.3,0.3-0.4
				c0.1-0.1,0.1-0.3,0.1-0.4c0-0.1,0-0.4,0.1-0.5c0.1-0.3,0.1-0.5,0.3-0.8c0-0.3,0.1-0.5,0.3-0.8c0.1-0.5,0.4-1.1,0.5-1.5
				c0.1-0.5,0.3-0.9,0.5-1.5c0.1-0.4,0.3-0.8,0.3-1.2c0.1-0.4,0.3-0.8,0.4-1.2c0.1-0.4,0.4-0.9,0.5-1.3c0.3-0.4,0.4-0.9,0.7-1.5
				c0-0.1,0.1-0.3,0.1-0.4c0-0.1,0.1-0.3,0.1-0.3c0.3-0.4,0.4-0.9,0.4-1.3c0-0.4,0.1-0.9,0.5-1.3c0-0.1,0-0.1,0-0.3
				c-0.1-0.1-0.1-0.3-0.1-0.4c0-0.1,0.1-0.1,0.3-0.3c0.1-0.1,0.1-0.1,0.3-0.3c0.1-0.1-1.2-0.9-1.2-1.1c0.3-0.8,0.5-1.5,0.8-2.1
				c0.3-0.7,0.5-1.5,0.8-2.1c0.1-0.1,0.1-0.4,0.3-0.5c0-0.1,0.1-0.4,0.1-0.5c0.1-0.4,0.3-0.7,0.3-1.1s0.1-0.8,0.3-1.2
				c0.1-0.4,0.3-0.7,0.5-1.1c0.3-0.3,0.4-0.7,0.5-1.1c0.1-0.3,0.4-0.7,0.5-1.1s0.3-0.7,0.4-1.1c0.1-0.3,0.3-0.5,0.3-0.8
				c0.3-0.4,0.5-0.8,0.7-1.2c0.3-0.4,0.5-0.8,0.7-1.2s0.3-0.8,0.4-1.2s0.3-0.8,0.5-1.1c0.4-0.7,0.8-1.3,1.1-2
				c0.4-0.7,0.7-1.3,1.1-2.1c0-0.1,0.1-0.3,0.1-0.5c0-0.1,0.1-0.4,0.3-0.5c0.4-0.4,0.7-0.9,0.9-1.5c0.1-0.5,0.4-1.1,0.7-1.6
				c0.3-0.4,0.5-0.9,0.7-1.5c0.3-0.5,0.4-0.9,0.7-1.5l0,0c0.4-0.4,0.8-0.8,0.9-1.2c0.3-0.4,0.4-0.9,0.7-1.3c0.1-0.1,0.1-0.1,0.3-0.3
				c0.1-0.1,0.1-0.1,0.3-0.1c0.3,0,0.7,0,1.1-0.1C97.9,91.3,98.3,91.3,98.7,91.3z M70.9,134.8c0.1,0.1,0.4,0.1,0.4,0.1
				c0.1,0,0.1,0.1,0.3,0.1v0.1c-0.1,0-0.3,0-0.4,0c-0.1,0-0.3,0-0.4,0c0,0,0,0,0-0.1C70.9,135.1,70.9,134.9,70.9,134.8z M70.9,137.1
				c0.1-0.1,0.3-0.3,0.4-0.3c0.1,0,0.1,0,0.1,0l0.1,0.1c-0.1,0.3-0.1,0.4-0.3,0.4c-0.1,0.1-0.3,0.1-0.4,0.1s-0.3,0-0.4,0v-0.1
				C70.7,137.4,70.8,137.2,70.9,137.1z M71.5,138.4c-0.1,0.1-0.3,0.3-0.4,0.3c-0.1-0.3-0.3-0.4-0.3-0.5l0.3-0.3
				C71.2,138,71.3,138.2,71.5,138.4z M70,141.4c-0.1-0.1-0.1-0.3-0.1-0.4s0-0.4,0-0.5c0-0.1,0-0.3,0-0.4c0-0.1,0-0.3,0.1-0.5
				c0.1,0.1,0.3,0,0.5,0c0.1-0.1,0.3,0,0.4,0.3c-0.1,0.1-0.1,0.1-0.3,0.1c-0.1,0-0.1,0.1-0.3,0.1c0.1,0.1,0.3,0.1,0.4,0.1
				c0.1,0,0.1,0,0.3,0c0,0.1-0.1,0.3-0.3,0.5l0,0c0,0.3,0,0.5,0,0.8c0,0.3,0,0.5,0,0.9c0,0.1-0.1,0.3-0.4,0.4c0-0.1-0.1-0.1-0.1-0.1
				l-0.1-0.1c0-0.3,0-0.4,0-0.7C70.4,141.8,70.3,141.5,70,141.4z M70.1,144.3c0,0,0-0.1,0.1-0.1s0.1-0.1,0.3-0.3l0.4,0.5
				c-0.1,0.1-0.1,0.1-0.1,0.3l-0.1,0.1c-0.1-0.1-0.1-0.1-0.3-0.3C70.1,144.6,70.1,144.5,70.1,144.3z M70.8,147
				c-0.1-0.1-0.3-0.1-0.3-0.4c-0.1-0.3-0.1-0.7-0.3-0.9c0-0.1,0-0.3,0-0.3h0.1c0,0.1,0,0.1,0,0.3s0,0.1,0,0.3
				c0.1,0.1,0.1,0.3,0.1,0.4c0,0.1,0.1,0.3,0.1,0.3c0,0.1,0,0.3,0,0.5C70.9,146.9,70.9,146.9,70.8,147C70.8,146.9,70.8,147,70.8,147
				z M71.1,149.1c-0.1-0.5-0.1-0.8,0-1.1c0.1,0.3,0.3,0.7,0.4,0.9c0.1,0.3,0.3,0.5,0.3,0.9C71.5,149.9,71.2,149.7,71.1,149.1z
				 M72,134.1l-0.1,0.1c-0.1,0-0.1,0-0.1,0c-0.1-0.1-0.1-0.1-0.3-0.3c0-0.1-0.1-0.1-0.3-0.3c0,0,0-0.1,0-0.3
				c0.1-0.1,0.1-0.1,0.3-0.3c0.1-0.1,0.3-0.1,0.4-0.1c0.1,0,0.3-0.1,0.4-0.1C72.3,133.5,72.1,133.9,72,134.1z M74.7,122.1
				c0-0.1,0.1-0.1,0.3-0.3l0.1,0.1l0.1,0.1l-0.4,0.4c-0.1,0-0.1-0.1-0.1-0.1C74.7,122.2,74.7,122.1,74.7,122.1z M78.6,120.8
				c0,0.1-0.1,0.1-0.1,0.3c0,0.1-0.1,0.3-0.1,0.3v0.3c-0.1,0.5-0.4,1.1-0.7,1.7c-0.1,0.1-0.1,0.4-0.3,0.7c0,0.3-0.1,0.4-0.3,0.7
				c-0.1,0.1-0.1,0.4-0.3,0.5c-0.1,0.1-0.1,0.3-0.3,0.4c0.1,0.3,0.3,0.4,0.1,0.7c0,0.3-0.1,0.5-0.3,0.8c-0.3,0.4-0.4,0.9-0.5,1.5
				c-0.1,0.4-0.3,0.8-0.4,1.2c-0.1,0.4-0.1,0.8-0.3,1.2c-0.1,0.3-0.1,0.4-0.3,0.7c0,0.3-0.1,0.4-0.3,0.7c-0.1,0.5-0.3,1.1-0.4,1.6
				c-0.1,0.5-0.3,1.1-0.5,1.6c0,0.1-0.1,0.1-0.1,0.3s-0.1,0.1-0.1,0.1c-0.1,0-0.3,0-0.4-0.1c-0.1-0.1,0-0.4,0-0.4
				c0.3-0.3,0.4-0.5,0.4-0.9c0-0.1,0-0.3,0-0.4c0-0.1,0.1-0.3,0.1-0.3c0-0.1,0-0.1,0-0.3s0.1-0.1,0.1-0.3c0.3-0.9,0.5-1.7,0.8-2.7
				c0.3-0.9,0.5-1.7,0.8-2.7c0.1-0.3,0.1-0.7,0.3-0.9c0.1-0.3,0.1-0.7,0.3-0.9c0.1-0.4,0.3-0.8,0.4-1.2c0.1-0.4,0.4-0.8,0.4-1.2
				c0.1-0.3,0.1-0.7,0.3-0.9c0.1-0.3,0.1-0.7,0.3-0.9c0,0,0.1-0.1,0.1-0.3c0.1-0.1,0.1-0.3,0.3-0.4c0.1-0.1,0.1-0.3,0.3-0.4
				c0-0.1,0.1-0.1,0.1-0.3c0,0,0.1-0.1,0.1-0.3l0.1,0.1l0.1,0.1C78.6,120.5,78.6,120.6,78.6,120.8z M79.8,89.2
				c0,0.1-0.1,0.1-0.1,0.3c-0.1-0.1-0.3-0.1-0.4-0.3c0.1-0.1,0.1-0.1,0.3-0.3c0.1-0.1,0.1-0.1,0.3-0.1c0.1,0,0.1,0,0.3,0
				c0,0.1,0.1,0.1,0.3,0.1C79.9,89,79.9,89.2,79.8,89.2z M86.2,87.7c-0.1,0-0.1,0.1-0.1,0.1c-0.5,0.1-0.9,0.1-1.3,0.3
				c-0.4,0.1-0.8,0.1-1.2,0.3c-0.4,0.1-0.8,0.1-1.1,0.3c-0.4,0.1-0.7,0.3-1.1,0.4c-0.1,0-0.1,0-0.3,0s-0.3-0.1-0.4-0.1v-0.1
				c0-0.1,0-0.1,0-0.1c0.1-0.1,0.3-0.1,0.4-0.3c0.1,0,0.3-0.1,0.4-0.3c0.1,0,0.4,0,0.5,0c0.1,0,0.3,0,0.5-0.1
				c0.4-0.1,0.8-0.3,1.2-0.3c0.4,0,0.8,0,1.2-0.1c0.1,0,0.4-0.1,0.5-0.1s0.4-0.1,0.5-0.1c0.1,0,0.1,0,0.3,0s0.3,0.1,0.3,0.1
				C86.3,87.5,86.3,87.5,86.2,87.7z M87,87.3h1.2C87.8,87.8,87.4,87.8,87,87.3z"/>
			<path class="st6" d="M157.8,71.3c0-0.1-0.1-0.4-0.3-0.7c-0.4-0.4-0.7-0.8-1.1-1.3c-0.4-0.4-0.9-0.7-1.6-0.8
				c-0.8-0.1-1.2-0.5-0.9-1.3c-0.3-0.1-0.7-0.3-0.9-0.4s-0.7-0.3-0.9-0.4c-0.1,0.1-0.4,0.1-0.7,0.3c-0.3,0.1-0.5,0.3-0.7,0.4
				c-1.3,0.9-2.7,2-3.7,3.1c-1.2,1.1-2.3,2.3-3.3,3.5c-1.3,1.5-2.8,3.1-4,4.6c-1.3,1.6-2.5,3.2-3.6,5c-0.8,1.3-1.7,2.5-2.5,3.9
				c-0.8,1.3-1.6,2.5-2.5,3.9c-0.8,1.3-1.7,2.7-2.5,4c-0.8,1.3-1.6,2.7-2.4,4c-1.1,1.7-2,3.5-3.1,5.4c-0.9,1.7-2,3.5-2.9,5.4
				c-0.8,1.5-1.6,2.9-2.4,4.3c-0.8,1.5-1.5,2.8-2.3,4.3c-0.1,0.1-0.1,0.1-0.3,0.3s-0.3,0.3-0.4,0.4c0.1-0.3,0.1-0.4,0.1-0.5
				c0-0.1,0-0.3,0-0.3c0.1-0.3,0.3-0.7,0.5-0.9c0.1-0.3,0.3-0.7,0.4-0.9c0.1-0.7,0.4-1.2,0.5-1.9c0.1-0.7,0.3-1.2,0.5-1.7
				c0.1-0.3,0.1-0.5,0.3-0.5c0.4-0.5,0.7-1.1,0.8-1.7c0.1-0.5,0.3-1.2,0.5-1.7c0.1-0.4,0.4-0.8,0.4-1.3c0.1-0.4,0.3-0.9,0.4-1.3
				c0.1-0.5,0.4-1.1,0.5-1.6c0.1-0.5,0.4-1.1,0.5-1.6c0-0.1,0-0.1,0-0.3c0-0.1,0-0.3,0-0.3c-0.1-0.3-0.1-0.5,0-0.7
				c0.3-0.4,0.4-0.8,0.4-1.2c0.1-0.4,0.1-0.8,0.3-1.2c0.1-0.5,0.3-0.9,0.4-1.5c0.3-0.4,0.4-0.9,0.7-1.5c0.1-0.4,0.3-0.9,0.4-1.5
				c0-0.5,0.1-1.1,0.4-1.5c0.4-1.1,0.8-2.3,1.1-3.5c0.3-1.2,0.7-2.3,0.9-3.5c0.1-0.4,0.3-0.8,0.4-1.3c0.1-0.4,0.3-0.9,0.3-1.3
				c0.1-0.5,0.3-1.2,0.4-1.7c0.1-0.7,0.1-1.2,0.3-1.9c0-0.4-0.1-0.9-0.5-1.3c-0.3-0.3-0.5-0.5-0.9-0.5c-0.4,0-0.7-0.3-0.9-0.5
				c-0.1-0.1-0.4-0.4-0.7-0.4c-0.3-0.1-0.5-0.3-0.9-0.4c-0.4-0.1-0.8-0.4-1.2-0.5c-0.4-0.1-0.8-0.1-1.3,0c-0.1,0-0.3,0-0.3-0.1
				c0-0.1,0-0.3-0.1-0.3s-0.1-0.1-0.3,0c-0.1,0-0.3,0-0.3,0.1c-0.1,0-0.1,0-0.3,0c-0.4-0.1-0.8-0.1-0.9,0.1
				c-0.3,0.3-0.5,0.4-0.8,0.5c-0.8,0.3-1.1,0.8-0.9,1.6c0,0.1-0.1,0.1-0.1,0.3s-0.1,0.3-0.3,0.3c-0.7,1.2-1.2,2.4-1.9,3.5
				c-0.7,1.2-1.2,2.3-1.9,3.5c-0.7,1.3-1.3,2.5-2,3.9c-0.7,1.2-1.3,2.5-2,3.9c-0.5,0.9-0.9,2-1.5,2.9c-0.4,0.9-0.9,2-1.3,2.9
				c-0.3,0.5-0.5,1.1-0.8,1.6c-0.3,0.5-0.5,1.1-0.8,1.6c-0.3,0.8-0.7,1.6-0.9,2.4c-0.3,0.8-0.7,1.6-0.9,2.4
				c-0.9,2.1-1.7,4.4-2.4,6.6c-0.7,2.1-1.2,4.4-1.3,6.7c-0.1,1.1-0.1,2,0,2.9c0.1,0.9,0.4,1.9,0.9,2.7c0.1,0.3,0.4,0.5,0.7,0.7
				c0.3,0.1,0.4,0.3,0.7,0.4c0.3,0.1,0.5,0.1,0.7,0.3c0.3,0.1,0.4,0.3,0.7,0.3c0.3-0.4,0.5-0.7,0.5-0.8c0-0.1,0-0.4-0.1-0.9
				c-0.1-0.3-0.1-0.7-0.1-0.9c0-0.3,0.1-0.5,0.4-0.9c0.1-0.1,0.4-0.4,0.7-0.7c0.3-0.3,0.3-0.5,0.3-0.7c0.1-1.1,0.4-2,0.8-2.8
				c0.4-0.9,0.8-1.7,1.1-2.7c0.3-0.8,0.5-1.5,0.9-2.1c0.4-0.7,0.7-1.5,1.1-2.1c0.3-0.5,0.4-1.1,0.7-1.5c0.3-0.5,0.5-0.9,0.8-1.5
				c0.4-0.4,0.7-0.9,0.8-1.3c0.3-0.4,0.3-0.9,0.1-1.3c0.4-0.4,0.7-0.7,0.9-0.9c0.1-0.4,0.4-0.7,0.5-1.1c0.1-0.4,0.4-0.7,0.5-1.1
				c0.8-1.3,1.6-2.8,2.4-4.3c0.7-1.2,1.2-2.3,1.9-3.5c0.5-1.2,1.2-2.3,1.9-3.5c0.3-0.5,0.7-1.1,0.9-1.6c0.4-0.5,0.7-1.1,1.1-1.6
				c0.1-0.1,0.1-0.1,0.3-0.1s0.1-0.1,0.3-0.1c-0.1,0.5-0.1,0.9-0.3,1.5c-0.1,0.4-0.1,0.9-0.3,1.3c-0.3,1.1-0.5,2.3-0.8,3.5
				c-0.3,1.2-0.5,2.3-0.9,3.5c-0.4,1.6-0.8,3.1-1.3,4.7c-0.4,1.6-0.9,3.1-1.3,4.7c-0.4,1.5-0.9,2.9-1.3,4.4
				c-0.4,1.5-0.9,2.9-1.3,4.4c-0.1,0.7-0.4,1.5-0.5,2.1s-0.3,1.5-0.4,2.1c0,0.4,0,0.8,0,1.2c0,0.4,0.1,0.8,0.3,1.1
				c0.1,0.3,0.3,0.7,0.7,0.8c0.3,0.3,0.7,0.4,1.2,0.4h0.1c0.1,0.3,0.4,0.4,0.7,0.3c0.3-0.1,0.5-0.3,0.8-0.4c0.1-0.1,0.3-0.3,0.5-0.4
				c0.1-0.1,0.4-0.3,0.5-0.5c0.5-0.5,0.9-1.1,1.2-1.6c0.3-0.5,0.7-1.2,0.9-1.7c1.5-2.8,2.9-5.6,4.4-8.4c1.5-2.8,3.1-5.6,4.6-8.4
				c0.3-0.5,0.5-1.1,0.8-1.6c0.3-0.5,0.5-1.1,0.8-1.6c0.5-0.8,0.9-1.6,1.5-2.4c0.5-0.8,0.9-1.5,1.3-2.3c-0.1-0.4-0.1-0.7-0.1-0.9
				c0-0.3-0.1-0.5-0.1-0.9c0.1-0.1,0.3-0.1,0.4-0.3c0.1-0.1,0.3-0.1,0.3-0.3c0-0.4,0.1-0.8,0.5-0.9c0.3-0.1,0.5-0.4,0.7-0.5
				c0.1-0.1,0.3-0.1,0.3-0.4c0.4-0.5,0.7-1.1,1.1-1.6c0.4-0.5,0.7-1.1,0.9-1.6c0.3-0.8,0.8-1.6,1.3-2.4c0.5-0.7,1.1-1.5,1.5-2.3
				c0.1-0.3,0.4-0.7,0.7-0.9c0.3-0.3,0.5-0.5,0.7-0.9c1.1-2,2.5-3.9,4.4-5.5c0.1-0.1,0.1-0.1,0.3-0.3c0.1-0.1,0.1-0.1,0.3-0.3
				c0.3-0.7,0.7-1.2,1.2-1.7c0.5-0.4,0.9-0.9,1.3-1.5c0.3-0.3,0.5-0.5,0.8-0.8c0.3-0.3,0.7-0.5,1.2-0.8c0,0.3-0.1,0.4-0.1,0.5
				c0,0.1,0,0.3-0.1,0.3c-0.5,1.3-1.1,2.7-1.6,4c-0.5,1.3-1.1,2.7-1.6,4c-0.8,1.9-1.6,3.7-2.3,5.6c-0.8,1.9-1.6,3.7-2.4,5.6
				c-0.1,0.3-0.3,0.7-0.4,0.9c-0.1,0.3-0.3,0.7-0.4,0.9c-0.4,1.2-0.9,2.4-1.3,3.6c-0.4,1.2-0.9,2.4-1.3,3.6c-0.8,2-1.5,4-2.1,5.9
				c-0.7,2-1.5,3.9-2.1,5.9c-0.5,1.6-1.1,3.1-1.6,4.7s-0.9,3.1-1.3,4.7c-0.3,0.8-0.4,1.6-0.7,2.4c-0.1,0.8-0.4,1.6-0.4,2.4
				c-0.1,0.9-0.3,1.7-0.3,2.7c0,0.8-0.1,1.7-0.1,2.7c-0.1,1.5,0,2.8,0.4,4c0.3,0.8,0.7,1.5,1.2,2c0.3,0.3,0.5,0.4,0.9,0.4
				c0.4,0.1,0.7,0.1,1.1,0.4c1.2-0.8,1.9-1.9,2.1-3.2c0.1-0.7,0.3-1.5,0.3-2.1c0-0.7,0.3-1.3,0.7-2c0-0.1,0-0.1,0.1-0.3
				c0.1-0.5,0.1-1.1,0.3-1.7c0.1-0.5,0.3-1.2,0.3-1.7c0-0.1,0.1-0.1,0.1-0.3s0-0.3,0.1-0.3c0.5-1.2,0.9-2.4,0.9-3.6
				c0-0.1,0-0.1,0.1-0.4c0.3-0.3,0.4-0.7,0.7-0.9c0.3-0.3,0.3-0.7,0.1-1.2c0.3-0.4,0.4-0.8,0.5-1.2c0.1-0.4,0.3-0.8,0.4-1.3
				c0.5-1.1,0.9-2,1.2-3.1c0.3-1.1,0.5-2,1.1-3.1c0.1-0.4,0.4-0.9,0.5-1.3s0.4-0.9,0.5-1.3c0.1-0.1,0.1-0.4,0.3-0.5s0.1-0.3,0.3-0.5
				c0.1-0.1,0.3-0.4,0.3-0.7s0.1-0.4,0.3-0.7c0.1-0.3,0.3-0.4,0.4-0.7c0.1-0.3,0.1-0.4,0.3-0.7c0.1-0.3,0.1-0.7,0.3-0.9
				c0-0.3,0.3-0.7,0.4-0.9c0.1,0,0.1-0.1,0-0.1c0,0,0-0.1,0-0.3c0.1-0.1,0.1-0.3,0.1-0.4c0-0.1,0.1-0.3,0.1-0.4
				c0.1-0.1,0.3-0.3,0.3-0.4c0.1-0.1,0.1-0.3,0.3-0.5c0.1-0.4,0.4-0.8,0.4-1.2c0.1-0.4,0.3-0.8,0.4-1.2c0.1-0.3,0.3-0.4,0.4-0.7
				c0.1-0.3,0.3-0.4,0.3-0.7c-0.1-0.3-0.1-0.5,0-0.7c0.1-0.3,0.3-0.4,0.4-0.7s0.4-0.7,0.7-0.9c0.3-0.3,0.4-0.7,0.3-1.1
				c0-0.1,0.1-0.1,0.1-0.1l0.1-0.1c0.1-0.1,0.3-0.3,0.4-0.5c0.1-0.3,0.3-0.5,0.4-0.8c0.1-0.3,0.3-0.5,0.4-0.8
				c0.1-0.3,0.1-0.5,0.3-0.7c0.1-0.9,0.4-1.7,0.5-2.3c0.3-0.5,0.5-1.2,1.1-1.9c0.1-0.1,0.3-0.3,0.3-0.4c0.4-0.9,0.8-1.7,1.2-2.5
				c0.4-0.8,0.8-1.7,1.3-2.5c0.5-0.8,0.9-1.7,1.2-2.7c0.3-0.9,0.7-1.7,1.2-2.7c0.5-1.1,0.8-2,0.8-2.9
				C158,73.2,157.8,72.3,157.8,71.3z M130.8,92.2c-0.1,0-0.1,0.1-0.3,0.3c-0.1-0.1-0.1-0.3-0.1-0.4c0-0.1,0.1-0.1,0.3-0.3
				c0.1,0.1,0.3,0.1,0.3,0.3C130.9,92.1,130.9,92.1,130.8,92.2z M146.5,72.6c-0.3,0.1-0.4,0.4-0.5,0.5l0,0l0,0l0,0
				c-0.1,0.1-0.1,0.1-0.1,0.1l-0.1,0.1c-0.8,1.1-1.7,2.1-2.5,3.1c-0.8,1.1-1.7,2.1-2.4,3.1c-0.5,0.7-1.1,1.3-1.6,2
				c-0.5,0.7-1.1,1.3-1.6,2.1c-0.4,0.5-0.8,1.1-1.2,1.6c-0.4,0.5-0.7,1.2-1.1,1.7c-0.1,0.3-0.4,0.7-0.5,0.9
				c-0.1,0.3-0.4,0.7-0.8,1.2c0.1-0.4,0.3-0.9,0.3-1.2c0.1-0.4,0.1-0.7,0.3-1.1c0.1-0.3,0.4-0.5,0.5-0.8c0.1-0.3,0.3-0.5,0.5-0.5
				c0.1,0,0.3-0.1,0.4-0.3c0.1-0.1,0.1-0.3,0.3-0.4c0.1-0.1,0.1-0.3,0.3-0.3c0.1-0.1,0.3-0.1,0.5,0c-0.4-0.4-0.5-0.8-0.4-1.1
				s0.4-0.7,0.7-0.9c0,0.4,0,0.7,0,0.8c0.4-0.1,0.5-0.4,0.5-0.7c0-0.3,0-0.4-0.1-0.5c0.3-0.1,0.4-0.4,0.7-0.5
				c0.1-0.1,0.4-0.3,0.5-0.5c0.5-0.8,1.2-1.6,2-2.7c0-0.1-0.1-0.3-0.3-0.7c0.1-0.1,0.1-0.3,0.3-0.3c0.1,0,0.3,0,0.4,0s0.3,0,0.4,0
				c0.1-0.1,0.4-0.3,0.5-0.5c0.1-0.1,0.3-0.4,0.4-0.5c0.1-0.4,0.3-0.8,0.7-1.2c0.3-0.3,0.5-0.7,0.8-1.1c0.1-0.3,0.5-0.5,0.8-0.7
				c0.4-0.3,0.7-0.4,1.2-0.3l0,0c0-0.1-0.1-0.3-0.1-0.3c0-0.1-0.1-0.3-0.1-0.4c0.1-0.1,0.4-0.3,0.7-0.3c0.3-0.1,0.4-0.3,0.7-0.3
				c0,0,0,0.1,0.1,0.1C147,72.1,146.7,72.3,146.5,72.6z M148.2,70.8c-0.1,0.1-0.4,0.3-0.5,0.4c0.1-0.4,0.3-0.7,0.4-0.7
				c0.1-0.1,0.4-0.1,0.8-0.3C148.6,70.5,148.3,70.7,148.2,70.8z M130.8,128.3c-0.1,0.4-0.3,0.9-0.4,1.3c-0.3-1.2,0-2.1,0.7-2.8
				C131.1,127.3,130.9,127.9,130.8,128.3z M131.9,123.7c-0.1,0.4-0.1,0.8-0.3,1.3c0,0.1,0,0.4,0,0.5c0,0.1,0,0.3-0.1,0.5
				c-0.1,0.3-0.4,0.4-0.8,0.4c0.1-0.4,0.1-0.7,0.3-1.1c0.1-0.4,0.1-0.7,0.3-0.9c0.1-0.3,0.1-0.7,0.3-0.9c0-0.4,0.3-0.7,0.7-0.9
				C132.1,122.8,132,123.3,131.9,123.7z M132.5,121.3c0,0.1-0.3,0.3-0.7,0.4c0.1-0.1,0.1-0.4,0.3-0.5s0.3-0.4,0.3-0.8
				C132.5,120.9,132.5,121.2,132.5,121.3z M133.6,118.1c-0.1,0.3-0.1,0.7-0.3,0.9c-0.1,0.3-0.3,0.7-0.5,1.1
				c-0.1-0.3-0.1-0.5-0.1-0.8c0-0.3,0.1-0.4,0.1-0.7c0.1-0.1,0.1-0.4,0.3-0.7c0.1-0.3,0.1-0.4,0.1-0.7h0.1h0.1
				c0,0.1,0.1,0.3,0.1,0.4C133.6,117.8,133.6,117.9,133.6,118.1z M135.9,110.6c0,0.1,0,0.3-0.1,0.4v0.1c0,0,0,0-0.1,0
				c0,0.3-0.1,0.5-0.1,0.8s-0.1,0.5-0.1,0.9c-0.1,0.3-0.1,0.7-0.3,0.9c-0.1,0.3-0.1,0.7-0.3,0.9c-0.1,0.3-0.1,0.4-0.3,0.7
				c-0.1,0.3-0.1,0.5-0.3,0.7c-0.1,0.3-0.4,0.4-0.8,0.5c0.1-0.3,0.1-0.5,0.1-0.8c0-0.3,0.1-0.5,0.1-0.7c0.1-0.7,0.4-1.2,0.5-1.9
				c0.1-0.5,0.4-1.2,0.7-1.7c0-0.1,0.1-0.1,0.3-0.3c0.1,0,0.3-0.1,0.4-0.1c0,0,0,0,0-0.1l0,0c-0.1-0.1-0.1-0.4-0.1-0.4
				c0-0.1,0.1-0.3,0.3-0.5C135.9,110.2,135.9,110.3,135.9,110.6z M136.4,109.2c-0.1,0.1-0.3,0.3-0.7,0.4l0.5-1.2
				C136.4,108.8,136.6,109.1,136.4,109.2z M137.1,107.2c-0.1,0-0.1,0-0.1,0h-0.1c0.1-0.1,0.1-0.4,0.3-0.5c0.1-0.1,0.1-0.4,0.3-0.5
				c0,0.3,0,0.4,0.1,0.7C137.5,107,137.4,107.1,137.1,107.2z"/>
		</g>
	</g>
</g>
</svg>
